<svg width="1440" height="1010" viewBox="0 0 1440 1010" fill="none" xmlns="http://www.w3.org/2000/svg">
<path d="M102.6 514H12.6V352H48.4V489.8H75.6V352H111.4V489.8H133.4V549H107.2L102.6 514ZM157.109 352H199.309C209.843 352 218.776 353.133 226.109 355.4C233.576 357.533 239.576 361.733 244.109 368C248.643 374.267 250.909 383.067 250.909 394.4C250.909 404 248.843 411.467 244.709 416.8C240.576 422.133 234.709 425.533 227.109 427C236.443 428.2 243.576 432.133 248.509 438.8C253.443 445.467 255.909 454.533 255.909 466C255.909 498 239.576 514 206.909 514H157.109V352ZM199.909 416.8C207.509 416.8 212.643 415.067 215.309 411.6C218.109 408.133 219.509 402.733 219.509 395.4C219.509 389 217.776 384.2 214.309 381C210.843 377.667 205.776 376 199.109 376H192.909V416.8H199.909ZM200.509 489C208.109 489 213.443 487.133 216.509 483.4C219.709 479.533 221.309 473.533 221.309 465.4C221.309 456.2 219.709 449.733 216.509 446C213.443 442.267 208.043 440.4 200.309 440.4H192.909V489H200.509ZM282.688 352H355.488V376.4H318.488V416.6H346.688V441.4H318.488V489.8H355.888V514H282.688V352ZM394.741 378.6H370.341V352H454.941V378.6H430.741V514H394.741V378.6ZM477.803 352H513.603V420.4H521.603C553.47 420.4 569.403 436 569.403 467.2C569.403 479.733 567.203 489.467 562.803 496.4C558.536 503.2 552.736 507.867 545.403 510.4C538.07 512.8 529.07 514 518.403 514H477.803V352ZM583.003 352H618.803V514H583.003V352ZM518.603 490.6C524.87 490.6 529.403 488.8 532.203 485.2C535.003 481.6 536.403 475.933 536.403 468.2C536.403 460.867 535.136 455.2 532.603 451.2C530.07 447.2 525.27 445.2 518.203 445.2H513.603V490.6H518.603Z" fill="#0A1717"/>
<path d="M792.6 106H873V133.2H828.4V174.4H836C868 174.4 884 190 884 221.2C884 233.733 881.8 243.467 877.4 250.4C873.133 257.2 867.267 261.867 859.8 264.4C852.467 266.8 843.467 268 832.8 268H792.6V106ZM833 244.6C839.4 244.6 843.933 242.867 846.6 239.4C849.4 235.8 850.8 230.133 850.8 222.4C850.8 214.933 849.533 209.2 847 205.2C844.467 201.2 839.667 199.2 832.6 199.2H828.4V244.6H833ZM907.194 276.2C917.594 276.467 925.394 275.333 930.594 272.8C935.794 270.267 938.394 265.733 938.394 259.2C938.394 257.2 938.06 254.667 937.394 251.6L900.994 106H934.194L948.194 172.6L954.794 216L959.594 172.4L971.394 106H1004.99L971.394 257C968.727 269.4 965.194 278.6 960.794 284.6C956.394 290.733 950.127 294.867 941.994 297C933.994 299.133 922.394 300.067 907.194 299.8V276.2ZM1027.94 106H1063.74V170.2H1067.34L1091.14 106H1126.74L1097.14 182L1127.74 268H1090.94L1067.34 197.4H1063.74V268H1027.94V106ZM1149.79 106H1222.59V130.4H1185.59V170.6H1213.79V195.4H1185.59V243.8H1222.99V268H1149.79V106ZM1261.84 132.6H1237.44V106H1322.04V132.6H1297.84V268H1261.84V132.6ZM1344.9 106H1380.7V174.4H1388.7C1420.57 174.4 1436.5 190 1436.5 221.2C1436.5 233.733 1434.3 243.467 1429.9 250.4C1425.64 257.2 1419.84 261.867 1412.5 264.4C1405.17 266.8 1396.17 268 1385.5 268H1344.9V106ZM1450.1 106H1485.9V268H1450.1V106ZM1385.7 244.6C1391.97 244.6 1396.5 242.8 1399.3 239.2C1402.1 235.6 1403.5 229.933 1403.5 222.2C1403.5 214.867 1402.24 209.2 1399.7 205.2C1397.17 201.2 1392.37 199.2 1385.3 199.2H1380.7V244.6H1385.7Z" fill="#0A1717"/>
<path d="M653.6 699.4H658.2C666.2 696.867 672.533 689.533 677.2 677.4C681.867 665.267 685.133 646 687 619.6L691.4 563H766.8V699.4H785V760H761.4L759.6 725H680.2L678.2 760H653.6V699.4ZM733.4 699.4V588.4H718.4L716.6 623.2C715.533 641.067 713.733 655.067 711.2 665.2C708.8 675.2 706.133 682.4 703.2 686.8C700.267 691.2 696.533 695.4 692 699.4H733.4ZM855.072 727.4C837.605 727.4 825.139 722.933 817.672 714C810.205 704.933 806.472 691.6 806.472 674V613.8C806.472 596.2 810.205 583 817.672 574.2C825.139 565.267 837.605 560.8 855.072 560.8C872.672 560.8 885.205 565.267 892.672 574.2C900.272 583.133 904.072 596.333 904.072 613.8V674C904.072 691.6 900.272 704.933 892.672 714C885.205 722.933 872.672 727.4 855.072 727.4ZM855.072 702C860.139 702 863.472 700.333 865.072 697C866.672 693.533 867.472 688.867 867.472 683V605C867.472 599 866.672 594.333 865.072 591C863.472 587.667 860.139 586 855.072 586C850.272 586 847.072 587.733 845.472 591.2C843.872 594.533 843.072 599.133 843.072 605V683C843.072 688.867 843.805 693.533 845.272 697C846.739 700.333 850.005 702 855.072 702ZM933.859 563H1030.86V725H995.659V588.6H969.059V725H933.859V563ZM1109.35 727.4C1091.89 727.4 1079.42 722.933 1071.95 714C1064.49 704.933 1060.75 691.6 1060.75 674V613.8C1060.75 596.2 1064.49 583 1071.95 574.2C1079.42 565.267 1091.89 560.8 1109.35 560.8C1126.95 560.8 1139.49 565.267 1146.95 574.2C1154.55 583.133 1158.35 596.333 1158.35 613.8V674C1158.35 691.6 1154.55 704.933 1146.95 714C1139.49 722.933 1126.95 727.4 1109.35 727.4ZM1109.35 702C1114.42 702 1117.75 700.333 1119.35 697C1120.95 693.533 1121.75 688.867 1121.75 683V605C1121.75 599 1120.95 594.333 1119.35 591C1117.75 587.667 1114.42 586 1109.35 586C1104.55 586 1101.35 587.733 1099.75 591.2C1098.15 594.533 1097.35 599.133 1097.35 605V683C1097.35 688.867 1098.09 693.533 1099.55 697C1101.02 700.333 1104.29 702 1109.35 702ZM1177.54 699.8C1185.14 699.933 1190.34 698.933 1193.14 696.8C1195.94 694.667 1197.87 690.267 1198.94 683.6C1200.14 676.8 1201.47 663.467 1202.94 643.6L1203.54 635.4L1208.74 563H1294.54V725H1258.94V590.4H1241.14L1237.94 642.2C1236.21 667.133 1234.34 684.733 1232.34 695C1230.34 705.133 1226.07 712.733 1219.54 717.8C1213.14 722.733 1202.54 725.2 1187.74 725.2C1183.34 725.2 1179.94 725.133 1177.54 725V699.8ZM1327.99 563H1363.79V628.6H1388.79V563H1424.79V725H1388.79V654.2H1363.79V725H1327.99V563ZM1458.06 563H1486.26V655.8L1527.66 563H1550.86V725H1522.06V630.6L1479.86 725H1458.06V563ZM1598.03 589.6H1573.63V563H1658.23V589.6H1634.03V725H1598.03V589.6ZM1680.49 563H1753.29V587.4H1716.29V627.6H1744.49V652.4H1716.29V700.8H1753.69V725H1680.49V563ZM1767.35 699.8C1774.95 699.933 1780.15 698.933 1782.95 696.8C1785.75 694.667 1787.68 690.267 1788.75 683.6C1789.95 676.8 1791.28 663.467 1792.75 643.6L1793.35 635.4L1798.55 563H1884.35V725H1848.75V590.4H1830.95L1827.75 642.2C1826.01 667.133 1824.15 684.733 1822.15 695C1820.15 705.133 1815.88 712.733 1809.35 717.8C1802.95 722.733 1792.35 725.2 1777.55 725.2C1773.15 725.2 1769.75 725.133 1767.35 725V699.8ZM1917.8 563H1953.6V631.4H1961.6C1993.33 631.4 2009.2 647 2009.2 678.2C2009.2 690.733 2007 700.467 2002.6 707.4C1998.33 714.2 1992.46 718.867 1985 721.4C1977.66 723.8 1968.73 725 1958.2 725H1917.8V563ZM1958.4 701.6C1964.66 701.6 1969.2 699.8 1972 696.2C1974.8 692.6 1976.2 686.933 1976.2 679.2C1976.2 671.867 1974.93 666.2 1972.4 662.2C1969.86 658.2 1965.06 656.2 1958 656.2H1953.6V701.6H1958.4ZM2036.93 563H2072.73V628.6H2097.73V563H2133.73V725H2097.73V654.2H2072.73V725H2036.93V563ZM2212.8 727.4C2195.33 727.4 2182.87 722.933 2175.4 714C2167.93 704.933 2164.2 691.6 2164.2 674V613.8C2164.2 596.2 2167.93 583 2175.4 574.2C2182.87 565.267 2195.33 560.8 2212.8 560.8C2230.4 560.8 2242.93 565.267 2250.4 574.2C2258 583.133 2261.8 596.333 2261.8 613.8V674C2261.8 691.6 2258 704.933 2250.4 714C2242.93 722.933 2230.4 727.4 2212.8 727.4ZM2212.8 702C2217.87 702 2221.2 700.333 2222.8 697C2224.4 693.533 2225.2 688.867 2225.2 683V605C2225.2 599 2224.4 594.333 2222.8 591C2221.2 587.667 2217.87 586 2212.8 586C2208 586 2204.8 587.733 2203.2 591.2C2201.6 594.533 2200.8 599.133 2200.8 605V683C2200.8 688.867 2201.53 693.533 2203 697C2204.47 700.333 2207.73 702 2212.8 702Z" fill="#0A1717"/>
<g filter="url(#filter0_f_1503_1506)">
<ellipse cx="212.637" cy="514.308" rx="353.772" ry="118.436" transform="rotate(32.8278 212.637 514.308)" fill="#7D2253"/>
</g>
<g filter="url(#filter1_f_1503_1506)">
<ellipse cx="1087.71" cy="505.054" rx="439.72" ry="105.527" transform="rotate(32.8278 1087.71 505.054)" fill="#43FFD2"/>
</g>
<defs>
<filter id="filter0_f_1503_1506" x="-341.558" y="48.1929" width="1108.39" height="932.229" filterUnits="userSpaceOnUse" color-interpolation-filters="sRGB">
<feFlood flood-opacity="0" result="BackgroundImageFix"/>
<feBlend mode="normal" in="SourceGraphic" in2="BackgroundImageFix" result="shape"/>
<feGaussianBlur stdDeviation="125" result="effect1_foregroundBlur_1503_1506"/>
</filter>
<filter id="filter1_f_1503_1506" x="463.753" y="0.646973" width="1247.91" height="1008.81" filterUnits="userSpaceOnUse" color-interpolation-filters="sRGB">
<feFlood flood-opacity="0" result="BackgroundImageFix"/>
<feBlend mode="normal" in="SourceGraphic" in2="BackgroundImageFix" result="shape"/>
<feGaussianBlur stdDeviation="125" result="effect1_foregroundBlur_1503_1506"/>
</filter>
</defs>
</svg>
