<svg width="34" height="75" viewBox="0 0 34 75" fill="none" xmlns="http://www.w3.org/2000/svg">
<path d="M10.68 50.9C10.68 52.06 10.8 52.92 11.04 53.48C11.32 54 11.8 54.36 12.48 54.56C13.2 54.76 14.32 54.86 15.84 54.86H23.52C27.48 54.86 29.82 52.32 30.54 47.24C30.54 47.12 30.64 47.08 30.84 47.12C31.08 47.12 31.2 47.18 31.2 47.3C30.84 50.46 30.66 53.06 30.66 55.1C30.66 55.42 30.6 55.66 30.48 55.82C30.36 55.94 30.12 56 29.76 56H2.16C2.08 56 2.04 55.88 2.04 55.64C2.04 55.4 2.08 55.28 2.16 55.28C3.72 55.28 4.86 55.18 5.58 54.98C6.34 54.78 6.84 54.4 7.08 53.84C7.36 53.24 7.5 52.34 7.5 51.14V23.36C7.5 22.16 7.36 21.28 7.08 20.72C6.84 20.16 6.34 19.78 5.58 19.58C4.86 19.34 3.72 19.22 2.16 19.22C2.08 19.22 2.04 19.1 2.04 18.86C2.04 18.62 2.08 18.5 2.16 18.5L5.1 18.56C6.78 18.64 8.1 18.68 9.06 18.68C10.14 18.68 11.52 18.64 13.2 18.56L16.02 18.5C16.1 18.5 16.14 18.62 16.14 18.86C16.14 19.1 16.1 19.22 16.02 19.22C14.46 19.22 13.3 19.34 12.54 19.58C11.82 19.78 11.32 20.18 11.04 20.78C10.8 21.34 10.68 22.22 10.68 23.42V50.9Z" fill="#8A8686"/>
<path d="M30.55 35.25C30.55 35.35 30.45 35.4 30.25 35.4C30.0833 35.4 30 35.35 30 35.25C30 33.55 29.55 32.2 28.65 31.2C27.75 30.2 26.5667 29.7 25.1 29.7H21.65C20.4167 29.7 19.5 29.7833 18.9 29.95C18.3 30.1167 17.8833 30.4167 17.65 30.85C17.4167 31.2833 17.3 31.95 17.3 32.85V43.85H22.75C24.45 43.85 25.65 43.6 26.35 43.1C27.05 42.5667 27.4 41.6667 27.4 40.4C27.4 40.3333 27.5 40.3 27.7 40.3C27.9 40.3 28 40.3333 28 40.4L27.95 44.35C27.95 45.3167 27.9667 46.0333 28 46.5L28.05 48.85C28.05 48.9167 27.95 48.95 27.75 48.95C27.55 48.95 27.45 48.9167 27.45 48.85C27.45 47.35 27.0833 46.3 26.35 45.7C25.65 45.1 24.3833 44.8 22.55 44.8H17.3V55.75C17.3 56.8167 17.45 57.6 17.75 58.1C18.05 58.5667 18.6167 58.9 19.45 59.1C20.3167 59.3 21.6833 59.4 23.55 59.4C23.65 59.4 23.7 59.5 23.7 59.7C23.7 59.9 23.65 60 23.55 60C22.1833 60 21.1167 59.9833 20.35 59.95L16 59.9L12.7 59.95C12.1 59.9833 11.2667 60 10.2 60C10.1333 60 10.1 59.9 10.1 59.7C10.1 59.5 10.1333 59.4 10.2 59.4C11.5 59.4 12.45 59.3167 13.05 59.15C13.6833 58.9833 14.1 58.6667 14.3 58.2C14.5333 57.7 14.65 56.95 14.65 55.95V32.8C14.65 31.8 14.5333 31.0667 14.3 30.6C14.1 30.1333 13.6833 29.8167 13.05 29.65C12.45 29.45 11.5 29.35 10.2 29.35C10.1333 29.35 10.1 29.25 10.1 29.05C10.1 28.85 10.1333 28.75 10.2 28.75H30C30.3 28.75 30.45 28.9 30.45 29.2L30.55 35.25Z" fill="white"/>
</svg>
